<svg xmlns="http://www.w3.org/2000/svg" viewBox="0 0 100 100">
  <!-- Background blob -->
  <ellipse cx="50" cy="55" rx="35" ry="30" fill="#E0F7FA"/>
  <!-- Body -->
  <circle cx="50" cy="45" r="28" fill="#00BCD4"/>
  <circle cx="50" cy="45" r="24" fill="#4DD0E1"/>
  <!-- Eyes (sparkle style) -->
  <path d="M38 40 L42 42 L38 44 L40 42 Z" fill="#FFD54F"/>
  <path d="M62 40 L66 42 L62 44 L64 42 Z" fill="#FFD54F"/>
  <!-- Cheeks -->
  <circle cx="36" cy="48" r="4" fill="#FFAB91" opacity="0.6"/>
  <circle cx="64" cy="48" r="4" fill="#FFAB91" opacity="0.6"/>
  <!-- Smile -->
  <path d="M44 52 Q50 58 56 52" stroke="#1a1a2e" stroke-width="2" fill="none" stroke-linecap="round"/>
  <!-- Brain pattern -->
  <path d="M30 55 Q35 50 40 55 Q45 60 50 55 Q55 50 60 55 Q65 60 70 55" stroke="white" stroke-width="2" fill="none" opacity="0.5"/>
  <path d="M32 62 Q38 58 44 62 Q50 66 56 62 Q62 58 68 62" stroke="white" stroke-width="2" fill="none" opacity="0.4"/>
</svg>